<svg width="97" height="96" viewBox="0 0 97 96" fill="none" xmlns="http://www.w3.org/2000/svg">
<g filter="url(#filter0_d_25_131)">
<path d="M70.3472 55.5C70.3472 67.9264 60.4974 78 48.3472 78C36.1969 78 26.3472 67.9264 26.3472 55.5C26.3472 43.0736 36.1969 18 48.3472 18C60.4974 18 70.3472 43.0736 70.3472 55.5Z" fill="#F2EB76"/>
<path fill-rule="evenodd" clip-rule="evenodd" d="M72.3472 55.5C72.3472 68.9884 61.6441 80 48.3472 80C35.0502 80 24.3472 68.9884 24.3472 55.5C24.3472 48.8947 26.9236 39.2081 31.0084 31.1829C33.0592 27.1539 35.549 23.4244 38.3936 20.6741C41.227 17.9345 44.5932 16 48.3472 16C52.1011 16 55.4673 17.9345 58.3007 20.6741C61.1453 23.4244 63.6352 27.1539 65.6859 31.1829C69.7707 39.2081 72.3472 48.8947 72.3472 55.5ZM48.3472 78C60.4974 78 70.3472 67.9264 70.3472 55.5C70.3472 43.0736 60.4974 18 48.3472 18C36.1969 18 26.3472 43.0736 26.3472 55.5C26.3472 67.9264 36.1969 78 48.3472 78Z" fill="#538642"/>
<path fill-rule="evenodd" clip-rule="evenodd" d="M48.3472 78C60.4974 78 70.3472 67.9264 70.3472 55.5C70.3472 43.0736 60.4974 18 48.3472 18C36.1969 18 26.3472 43.0736 26.3472 55.5C26.3472 67.9264 36.1969 78 48.3472 78ZM48.3472 76C59.3929 76 68.3472 66.7659 68.3472 55.375C68.3472 43.9841 59.3929 21 48.3472 21C37.3015 21 28.3472 43.9841 28.3472 55.375C28.3472 66.7659 37.3015 76 48.3472 76Z" fill="#D9DE2E"/>
<path d="M63.8095 67.3309C63.0364 68.1767 61.7241 68.2356 60.8783 67.4625C60.0326 66.6894 59.9736 65.3771 60.7467 64.5314C61.5198 63.6856 62.8321 63.6267 63.6779 64.3998C64.5236 65.1728 64.5825 66.4852 63.8095 67.3309Z" fill="#C4CB29"/>
<path d="M55.8095 74.3309C55.0364 75.1767 53.7241 75.2356 52.8783 74.4625C52.0326 73.6894 51.9736 72.3771 52.7467 71.5314C53.5198 70.6856 54.8321 70.6267 55.6779 71.3998C56.5236 72.1728 56.5825 73.4852 55.8095 74.3309Z" fill="#C4CB29"/>
<path d="M32.8095 63.3309C32.0364 64.1767 30.7241 64.2356 29.8783 63.4625C29.0326 62.6894 28.9736 61.3771 29.7467 60.5314C30.5198 59.6856 31.8321 59.6267 32.6779 60.3998C33.5236 61.1728 33.5825 62.4852 32.8095 63.3309Z" fill="#C4CB29"/>
<path d="M60.4768 72.0374C59.9347 72.6305 59.0143 72.6719 58.4211 72.1297C57.828 71.5875 57.7867 70.6671 58.3288 70.074C58.871 69.4808 59.7914 69.4395 60.3845 69.9817C60.9777 70.5239 61.019 71.4442 60.4768 72.0374Z" fill="#C4CB29"/>
<path d="M50.4768 76.0374C49.9347 76.6305 49.0143 76.6719 48.4211 76.1297C47.828 75.5875 47.7867 74.6671 48.3288 74.074C48.871 73.4808 49.7914 73.4395 50.3845 73.9817C50.9777 74.5239 51.019 75.4442 50.4768 76.0374Z" fill="#C4CB29"/>
<path d="M34.4768 67.0374C33.9347 67.6305 33.0143 67.6719 32.4211 67.1297C31.828 66.5875 31.7867 65.6671 32.3288 65.074C32.871 64.4808 33.7914 64.4395 34.3845 64.9817C34.9777 65.5239 35.019 66.4442 34.4768 67.0374Z" fill="#C4CB29"/>
<path d="M32.4768 57.0374C31.9347 57.6305 31.0143 57.6719 30.4211 57.1297C29.828 56.5875 29.7867 55.6671 30.3288 55.074C30.871 54.4808 31.7914 54.4395 32.3845 54.9817C32.9777 55.5239 33.019 56.4442 32.4768 57.0374Z" fill="#C4CB29"/>
<path d="M67.4768 63.0374C66.9347 63.6305 66.0143 63.6719 65.4211 63.1297C64.828 62.5875 64.7867 61.6671 65.3288 61.074C65.871 60.4808 66.7914 60.4395 67.3845 60.9817C67.9777 61.5239 68.019 62.4442 67.4768 63.0374Z" fill="#C4CB29"/>
<path d="M62.3472 56C62.3472 63.732 56.0792 70 48.3472 70C40.6152 70 34.3472 63.732 34.3472 56C34.3472 48.268 40.6152 42 48.3472 42C56.0792 42 62.3472 48.268 62.3472 56Z" fill="#BAC73A"/>
<path d="M57.3472 56C57.3472 60.9706 53.3177 65 48.3472 65C43.3766 65 39.3472 60.9706 39.3472 56C39.3472 51.0294 43.3766 47 48.3472 47C53.3177 47 57.3472 51.0294 57.3472 56Z" fill="#B6472C"/>
<path fill-rule="evenodd" clip-rule="evenodd" d="M59.3472 56C59.3472 62.0751 54.4223 67 48.3472 67C42.272 67 37.3472 62.0751 37.3472 56C37.3472 49.9249 42.272 45 48.3472 45C54.4223 45 59.3472 49.9249 59.3472 56ZM48.3472 65C53.3177 65 57.3472 60.9706 57.3472 56C57.3472 51.0294 53.3177 47 48.3472 47C43.3766 47 39.3472 51.0294 39.3472 56C39.3472 60.9706 43.3766 65 48.3472 65Z" fill="#662513"/>
<path fill-rule="evenodd" clip-rule="evenodd" d="M47.3472 62C52.3178 62 56.3472 57.9705 56.3472 53C56.3472 52.5572 56.3152 52.1219 56.2535 51.6963C56.9509 52.9748 57.3472 54.4411 57.3472 56C57.3472 60.9705 53.3178 65 48.3472 65C43.8194 65 40.0725 61.6564 39.4409 57.3036C40.9672 60.1016 43.9355 62 47.3472 62Z" fill="#A43E25"/>
<path d="M46.3472 53C46.3472 54.1046 45.4517 55 44.3472 55C43.2426 55 42.3472 54.1046 42.3472 53C42.3472 51.8954 43.2426 51 44.3472 51C45.4517 51 46.3472 51.8954 46.3472 53Z" fill="#F5A05F"/>
<path d="M47.4143 24.221C48.9885 25.9178 48.2014 29.2075 45.6562 31.5688C43.1111 33.9301 39.7717 34.4688 38.1975 32.772C36.6233 31.0752 37.4104 27.7855 39.9556 25.4242C42.5007 23.0629 45.8401 22.5242 47.4143 24.221Z" fill="#FFFAA3"/>
<path fill-rule="evenodd" clip-rule="evenodd" d="M42.7938 30.2619C43.7344 29.7575 44.1169 28.5958 43.6467 27.6269C43.1645 26.6331 41.968 26.2184 40.9743 26.7006C40.6794 26.8437 40.3493 27.0196 40.0602 27.255C39.6897 27.5566 39.4558 27.8958 39.3018 28.2475C39.255 28.3545 39.2088 28.4826 39.207 28.4878L39.2069 28.4879C39.2058 28.4909 39.2049 28.4935 39.204 28.4957C39.1938 28.5114 39.1714 28.5435 39.1298 28.5942C38.4296 29.4484 38.5544 30.7086 39.4087 31.4088C40.2629 32.1091 41.5231 31.9842 42.2233 31.13C42.4756 30.8222 42.6573 30.5394 42.7938 30.2619ZM39.211 28.4842C39.2111 28.4842 39.2103 28.4857 39.2085 28.4887C39.21 28.4857 39.211 28.4842 39.211 28.4842Z" fill="white"/>
</g>
<defs>
<filter id="filter0_d_25_131" x="0.347168" y="0" width="100" height="100" filterUnits="userSpaceOnUse" color-interpolation-filters="sRGB">
<feFlood flood-opacity="0" result="BackgroundImageFix"/>
<feColorMatrix in="SourceAlpha" type="matrix" values="0 0 0 0 0 0 0 0 0 0 0 0 0 0 0 0 0 0 127 0" result="hardAlpha"/>
<feOffset dx="4" dy="4"/>
<feColorMatrix type="matrix" values="0 0 0 0 0 0 0 0 0 0 0 0 0 0 0 0 0 0 0.2 0"/>
<feBlend mode="normal" in2="BackgroundImageFix" result="effect1_dropShadow_25_131"/>
<feBlend mode="normal" in="SourceGraphic" in2="effect1_dropShadow_25_131" result="shape"/>
</filter>
</defs>
</svg>
