<svg width="97" height="96" viewBox="0 0 97 96" fill="none" xmlns="http://www.w3.org/2000/svg">
<g filter="url(#filter0_d_25_181)">
<path d="M78.3893 56.3648C78.3893 56.3648 73.4926 63.2987 68.724 64.6669C62.9767 66.3159 57.6747 60.7658 57.6747 60.7658C57.6747 60.7658 60.9132 54.8542 67.0756 53.5449C71.816 52.5377 78.3893 56.3648 78.3893 56.3648Z" fill="#64AC1D"/>
<path fill-rule="evenodd" clip-rule="evenodd" d="M80.0229 57.5184L78.3892 56.3647L79.3955 54.6363C79.8802 54.9185 80.2242 55.3912 80.3435 55.9393C80.4628 56.4873 80.3465 57.0602 80.0229 57.5184ZM76.5849 55.4446C77.6907 55.958 78.3892 56.3647 78.3892 56.3647C78.3892 56.3647 77.9277 57.0182 77.1501 57.9636C75.3947 60.0976 72.0286 63.7187 68.724 64.6668C62.9766 66.3158 57.6746 60.7657 57.6746 60.7657C57.6746 60.7657 60.9131 54.8541 67.0756 53.5448C70.2706 52.866 74.2984 54.3833 76.5849 55.4446ZM57.6746 60.7657C55.9205 59.8048 55.9209 59.8042 55.9213 59.8036L55.922 59.8021L55.9238 59.7989L55.9283 59.7907L55.941 59.7681C55.9511 59.7501 55.9645 59.7266 55.9811 59.6978C56.0144 59.6402 56.0608 59.5616 56.1203 59.4644C56.2393 59.2703 56.411 59.0014 56.6353 58.6792C57.0824 58.0367 57.7456 57.1711 58.6231 56.2593C60.3623 54.4523 63.0491 52.3556 66.6599 51.5885C69.6156 50.9605 72.9008 51.8454 75.2067 52.7023C76.4063 53.1481 77.442 53.6256 78.1781 53.9914C78.5474 54.1749 78.8443 54.3318 79.0523 54.4448C79.1563 54.5013 79.2383 54.547 79.2962 54.5796C79.3251 54.5959 79.348 54.6089 79.3647 54.6185L79.3849 54.6301L79.3914 54.6339L79.3955 54.6363C79.3959 54.6365 79.3955 54.6363 78.3892 56.3647C80.0229 57.5184 80.0232 57.518 80.0229 57.5184L80.0204 57.522L80.016 57.5281L80.002 57.5479C79.9902 57.5643 79.9738 57.5872 79.9528 57.6161C79.9108 57.674 79.8507 57.7564 79.7735 57.86C79.6193 58.0671 79.3966 58.3599 79.1154 58.7138C78.5546 59.4195 77.7532 60.3775 76.7906 61.3845C74.9437 63.317 72.2117 65.7468 69.2755 66.5893C65.645 67.6309 62.2922 66.3662 60.0432 65.0662C58.8945 64.4023 57.9556 63.6856 57.304 63.1365C56.9765 62.8606 56.7171 62.6231 56.5354 62.4503C56.4445 62.3638 56.3726 62.2932 56.3211 62.2417C56.2954 62.2159 56.2747 62.1949 56.2592 62.179L56.2399 62.1591L56.2332 62.1522L56.2305 62.1495L56.2294 62.1483C56.2289 62.1478 56.2284 62.1473 57.6746 60.7657ZM55.9205 59.8048L57.6746 60.7657L56.2284 62.1473C55.6263 61.517 55.5018 60.5693 55.9205 59.8048Z" fill="#156319"/>
<path d="M75.8104 69.8476C75.8104 69.8476 66.7419 73.7768 61.1717 72.2492C54.4582 70.4081 52.5475 61.6783 52.5475 61.6783C52.5475 61.6783 59.348 57.7614 66.2685 60.1917C71.5921 62.0612 75.8104 69.8476 75.8104 69.8476Z" fill="#7CD623"/>
<path fill-rule="evenodd" clip-rule="evenodd" d="M76.6058 71.6827L75.8107 69.8475L77.5692 68.8948C77.8364 69.388 77.8842 69.9706 77.701 70.5007C77.5178 71.0309 77.1205 71.4597 76.6058 71.6827ZM74.7585 68.1194C75.4321 69.1486 75.8107 69.8475 75.8107 69.8475C75.8107 69.8475 75.088 70.1606 73.9254 70.5757C70.9695 71.631 65.1698 73.3455 61.172 72.2491C54.4584 70.408 52.5477 61.6782 52.5477 61.6782C52.5477 61.6782 59.3482 57.7613 66.2688 60.1916C69.9974 61.501 73.1839 65.7131 74.7585 68.1194ZM52.5477 61.6782C51.5495 59.9451 51.5501 59.9447 51.5508 59.9444L51.5522 59.9435L51.5556 59.9416L51.5642 59.9367L51.5889 59.9228C51.6087 59.9116 51.6351 59.897 51.6679 59.8791C51.7336 59.8433 51.8249 59.7945 51.9404 59.7352C52.171 59.6168 52.4989 59.4563 52.9106 59.2745C53.7319 58.9119 54.8991 58.4593 56.3038 58.0894C59.091 57.3555 62.9603 56.91 66.9315 58.3046C70.158 59.4377 72.84 62.2429 74.6063 64.4819C75.5203 65.6404 76.2543 66.7326 76.7602 67.535C77.0139 67.9374 77.212 68.2698 77.3486 68.505C77.417 68.6227 77.47 68.7163 77.507 68.7823C77.5255 68.8153 77.54 68.8415 77.5504 68.8604L77.5629 68.8832L77.5668 68.8904L77.5692 68.8948C77.5694 68.8952 77.5692 68.8948 75.8107 69.8475C76.6058 71.6827 76.6062 71.6825 76.6058 71.6827L76.6015 71.6845L76.5939 71.6878L76.5689 71.6985C76.5479 71.7075 76.5183 71.72 76.4805 71.7358C76.405 71.7675 76.2966 71.8123 76.1586 71.868C75.8826 71.9794 75.487 72.1345 74.9967 72.3148C74.0184 72.6744 72.6511 73.1382 71.0962 73.5534C68.0954 74.3548 63.9819 75.0935 60.643 74.1779C56.5269 73.0491 54.0171 69.852 52.5868 67.2314C51.8582 65.8967 51.3658 64.6342 51.0549 63.7067C50.8987 63.2409 50.7865 62.8541 50.7119 62.5777C50.6746 62.4394 50.6467 62.3284 50.6273 62.2486C50.6176 62.2086 50.61 62.1764 50.6045 62.1525L50.5977 62.1228L50.5955 62.1127L50.5946 62.1088L50.5943 62.1072C50.5941 62.1065 50.594 62.1058 52.5477 61.6782ZM51.5495 59.9451L52.5477 61.6782L50.594 62.1058C50.4076 61.2543 50.7942 60.3801 51.5495 59.9451Z" fill="#156319"/>
<path d="M60.868 70.6992C65.1329 72.1969 72.8251 69.5547 72.8251 69.5547C65.0132 64.263 57.2902 63.9246 54.5389 64.0203C54.5389 64.0203 56.6032 69.2015 60.868 70.6992Z" fill="#6FC21C"/>
<path d="M54.1227 69.7099C68.8473 60.9999 66.5473 45.4134 59.9266 33.9305L18.3433 57.906C24.9639 69.3889 38.4177 78.9999 54.1227 69.7099Z" fill="#A6682F"/>
<path fill-rule="evenodd" clip-rule="evenodd" d="M58.9278 32.1978C59.8847 31.6461 61.1077 31.9746 61.6594 32.9315C65.0919 38.8848 67.4984 46.0506 67.0247 52.9961C66.5426 60.0628 63.0799 66.7353 55.1411 71.4313C46.7395 76.4011 38.7746 76.366 32.0288 73.4318C25.3794 70.5395 20.0719 64.908 16.6108 58.905C16.0591 57.9481 16.3875 56.7251 17.3445 56.1734L58.9278 32.1978ZM19.3875 59.6127C26.3154 70.303 39.2033 78.5353 54.1229 69.7099C68.1101 61.4361 66.7351 46.9573 60.8874 35.6852C60.5791 35.0909 60.2583 34.5056 59.9268 33.9305L18.3434 57.906C18.6745 58.4803 19.0227 59.0499 19.3875 59.6127Z" fill="#6C3211"/>
<path fill-rule="evenodd" clip-rule="evenodd" d="M59.9266 33.9304C66.5473 45.4133 68.8473 60.9998 54.1227 69.7099C46.7372 74.0786 39.8496 74.2674 33.9364 72.0474C37.9558 72.6129 42.3787 71.831 47.0366 69.0757C59.4426 61.7372 57.5047 48.6051 51.9266 38.9304L18.5122 58.196C18.4554 58.0995 18.3991 58.0028 18.3433 57.906L59.9266 33.9304Z" fill="#925824"/>
<path d="M60.9489 56.0032C60.5008 57.0128 59.319 57.4679 58.3095 57.0197C57.2999 56.5715 56.8448 55.3898 57.293 54.3802C57.7412 53.3707 58.9229 52.9156 59.9325 53.3637C60.942 53.8119 61.3971 54.9936 60.9489 56.0032Z" fill="#77461A"/>
<path d="M59.6724 49.6566C59.3363 50.4138 58.45 50.7551 57.6928 50.4189C56.9356 50.0828 56.5943 49.1965 56.9304 48.4393C57.2666 47.6822 58.1529 47.3408 58.91 47.677C59.6672 48.0131 60.0085 48.8994 59.6724 49.6566Z" fill="#77461A"/>
<path d="M58.1086 62.4012C57.6604 63.4107 56.4787 63.8658 55.4691 63.4176C54.4596 62.9695 54.0045 61.7877 54.4527 60.7782C54.9008 59.7686 56.0826 59.3135 57.0921 59.7617C58.1017 60.2099 58.5568 61.3916 58.1086 62.4012Z" fill="#77461A"/>
<path d="M54.2478 56.3106C53.7996 57.3201 52.6179 57.7752 51.6083 57.3271C50.5987 56.8789 50.1436 55.6971 50.5918 54.6876C51.04 53.678 52.2217 53.2229 53.2313 53.6711C54.2409 54.1193 54.6959 55.301 54.2478 56.3106Z" fill="#77461A"/>
<path d="M51.6978 66.5882C51.3617 67.3454 50.4754 67.6867 49.7182 67.3506C48.961 67.0144 48.6197 66.1281 48.9558 65.371C49.292 64.6138 50.1783 64.2725 50.9354 64.6086C51.6926 64.9448 52.0339 65.8311 51.6978 66.5882Z" fill="#77461A"/>
<path d="M59.9264 33.9306C62.1333 37.7582 54.6136 46.2283 43.1307 52.8489C31.6478 59.4696 20.55 61.7338 18.3431 57.9061C16.1362 54.0785 23.6559 45.6085 35.1388 38.9878C46.6218 32.3671 57.7195 30.103 59.9264 33.9306Z" fill="#FFEED6"/>
<path fill-rule="evenodd" clip-rule="evenodd" d="M58.158 43.67C54.941 47.2936 50.0057 51.1935 44.1298 54.5813C38.254 57.9692 32.4062 60.2864 27.6584 61.255C25.2952 61.7372 23.0905 61.9092 21.2447 61.6407C19.4273 61.3764 17.5996 60.6202 16.6106 58.9049C15.6216 57.1896 15.8829 55.2289 16.5647 53.5237C17.2572 51.7918 18.5106 49.9699 20.1118 48.1663C23.3289 44.5427 28.2642 40.6428 34.14 37.2549C40.0159 33.8671 45.8637 31.5499 50.6115 30.5812C52.9746 30.0991 55.1793 29.9271 57.0251 30.1956C58.8425 30.4599 60.6702 31.216 61.6592 32.9314C62.6482 34.6467 62.3869 36.6073 61.7051 38.3126C61.0127 40.0445 59.7593 41.8664 58.158 43.67ZM43.1309 52.8487C54.6138 46.228 62.1335 37.758 59.9266 33.9304C57.7197 30.1027 46.6219 32.3669 35.139 38.9876C23.6561 45.6082 16.1364 54.0783 18.3433 57.9059C20.5502 61.7336 31.6479 59.4694 43.1309 52.8487Z" fill="#8C4922"/>
<path fill-rule="evenodd" clip-rule="evenodd" d="M54.3476 34.4999C54.3476 35.6045 53.4522 36.4999 52.3476 36.4999C52.053 36.4999 51.9004 36.5315 51.6955 36.5779C51.6751 36.5825 51.6535 36.5875 51.6306 36.5928C51.3646 36.6542 50.9287 36.7547 50.3476 36.7547C49.243 36.7547 48.3476 35.8592 48.3476 34.7547C48.3476 33.6501 49.243 32.7547 50.3476 32.7547C50.4664 32.7547 50.5066 32.7459 50.8122 32.6767C51.1698 32.5957 51.6422 32.4999 52.3476 32.4999C53.4522 32.4999 54.3476 33.3954 54.3476 34.4999Z" fill="white"/>
<path d="M56.5712 37.5179C58.058 40.0967 51.7085 46.543 42.3892 51.9162C33.0699 57.2894 24.3098 59.5548 22.823 56.9761C21.3362 54.3973 27.6857 47.951 37.005 42.5778C46.3243 37.2046 55.0844 34.9392 56.5712 37.5179Z" fill="#E7D2B4"/>
<path fill-rule="evenodd" clip-rule="evenodd" d="M33.9525 56.0171C29.9606 55.8636 26.7047 54.3981 25.0902 51.6428C23.059 53.8991 22.1584 55.8239 22.8229 56.9763C23.8409 58.7421 28.2694 58.2365 33.9525 56.0171Z" fill="#DDC5A2"/>
<path fill-rule="evenodd" clip-rule="evenodd" d="M27.4093 63.3338C28.2825 62.6572 29.5387 62.8166 30.2153 63.6897C30.3957 63.9226 30.5142 64.0239 30.6763 64.1574C30.6925 64.1707 30.7097 64.1847 30.7279 64.1996C30.9393 64.3723 31.2857 64.6552 31.6416 65.1146C32.3182 65.9878 32.1588 67.244 31.2857 67.9206C30.4125 68.5971 29.1563 68.4378 28.4797 67.5646C28.407 67.4707 28.3754 67.4443 28.1335 67.2451C27.8505 67.012 27.4855 66.6973 27.0534 66.1397C26.3768 65.2666 26.5362 64.0103 27.4093 63.3338Z" fill="#CF843E"/>
</g>
<defs>
<filter id="filter0_d_25_181" x="0.347168" y="0" width="100" height="100" filterUnits="userSpaceOnUse" color-interpolation-filters="sRGB">
<feFlood flood-opacity="0" result="BackgroundImageFix"/>
<feColorMatrix in="SourceAlpha" type="matrix" values="0 0 0 0 0 0 0 0 0 0 0 0 0 0 0 0 0 0 127 0" result="hardAlpha"/>
<feOffset dx="4" dy="4"/>
<feColorMatrix type="matrix" values="0 0 0 0 0 0 0 0 0 0 0 0 0 0 0 0 0 0 0.2 0"/>
<feBlend mode="normal" in2="BackgroundImageFix" result="effect1_dropShadow_25_181"/>
<feBlend mode="normal" in="SourceGraphic" in2="effect1_dropShadow_25_181" result="shape"/>
</filter>
</defs>
</svg>
