<svg width="112" height="96" viewBox="0 0 112 96" fill="none" xmlns="http://www.w3.org/2000/svg">
<g filter="url(#filter0_d_38_411)">
<path d="M34.7005 45.8576C31.2883 52.0293 27.9985 52.4999 27.9985 61.7566C27.9985 72.9107 36.9528 81.1395 47.9985 81.1395C59.0442 81.1395 67.9985 73.7803 67.9985 62.6262C67.9985 53.3695 64.3558 52.4999 60.631 46.1541C56.5023 39.1203 59.2646 28.9656 47.5979 28.9656C34.9313 28.9656 38.7163 38.594 34.7005 45.8576Z" fill="#A4D31F"/>
<path fill-rule="evenodd" clip-rule="evenodd" d="M30.6107 48.4479C31.3761 47.4219 32.1606 46.3181 32.9502 44.8899C33.8057 43.3426 34.274 41.6178 34.6721 39.7392C34.7583 39.3325 34.8427 38.9082 34.9291 38.4738C35.2202 37.0109 35.5337 35.4347 36.0137 34.0378C36.6664 32.1384 37.7095 30.2737 39.6764 28.9315C41.6148 27.6088 44.1989 26.9656 47.5979 26.9656C50.8031 26.9656 53.2738 27.6655 55.1594 29.0501C57.0377 30.4293 58.0986 32.3158 58.8135 34.2189C59.3428 35.6282 59.7332 37.206 60.0981 38.6811C60.2098 39.1324 60.3191 39.5741 60.4292 39.9985C60.9236 41.903 61.4702 43.633 62.3558 45.1417C63.2231 46.6194 64.089 47.7854 64.9354 48.8795C65.0688 49.052 65.2039 49.2251 65.3397 49.3993C66.0439 50.3027 66.7692 51.2331 67.4 52.2266C69.0078 54.7589 69.9985 57.674 69.9985 62.6262C69.9985 75.0906 59.9312 83.1395 47.9985 83.1395C35.9388 83.1395 25.9985 74.1037 25.9985 61.7566C25.9985 56.8429 26.8836 54.0317 28.3628 51.6082C28.9276 50.683 29.5794 49.8181 30.2062 48.9864C30.3426 48.8054 30.4778 48.626 30.6107 48.4479ZM31.7821 50.2189C32.6892 49.0144 33.6895 47.6862 34.7005 45.8576C35.9474 43.6023 36.4422 41.1191 36.911 38.7669C37.9519 33.5432 38.8641 28.9656 47.5979 28.9656C55.6311 28.9656 56.8233 33.7801 58.1346 39.0751C58.7277 41.4702 59.3451 43.9635 60.631 46.1541C61.7162 48.003 62.7945 49.3871 63.7778 50.6491C66.1693 53.7186 67.9985 56.0666 67.9985 62.6262C67.9985 73.7803 59.0442 81.1395 47.9985 81.1395C36.9528 81.1395 27.9985 72.9107 27.9985 61.7566C27.9985 55.2426 29.6276 53.0795 31.7821 50.2189Z" fill="#5B7C14"/>
<path fill-rule="evenodd" clip-rule="evenodd" d="M33.8262 75.6023C35.5178 76.3899 37.3523 76.9664 39.2963 77.2955C50.1871 79.1391 60.2441 73.3777 62.1058 62.38C63.2007 55.9125 61.789 53.2921 59.9434 49.8666C59.1846 48.4581 58.3524 46.9135 57.591 44.9094C56.6888 42.5348 56.4962 39.9734 56.3112 37.513C56.1754 35.7074 56.0437 33.9563 55.6387 32.3733C56.9272 34.2003 57.5176 36.5846 58.1344 39.0753C58.7275 41.4703 59.3449 43.9637 60.6308 46.1543C61.716 48.0032 62.7944 49.3872 63.7776 50.6493C66.1691 53.7188 67.9983 56.0667 67.9983 62.6263C67.9983 73.7805 59.044 81.1396 47.9983 81.1396C42.4602 81.1396 37.4478 79.071 33.8262 75.6023Z" fill="#92BC1B"/>
<path d="M40.2594 47.8881C42.4323 49.1356 42.5245 53.0545 40.4654 56.6411C38.4062 60.2278 34.9755 62.124 32.8026 60.8765C30.6297 59.629 30.5374 55.7101 32.5966 52.1235C34.6558 48.5369 38.0865 46.6406 40.2594 47.8881Z" fill="#BBEB35"/>
<path d="M44.9157 31.1066C45.6977 31.8088 45.3921 33.4243 44.2331 34.7151C43.0741 36.0059 41.5006 36.483 40.7187 35.7809C39.9367 35.0787 40.2423 33.4631 41.4013 32.1724C42.5603 30.8816 44.1337 30.4044 44.9157 31.1066Z" fill="#BBEB35"/>
<path fill-rule="evenodd" clip-rule="evenodd" d="M36.2388 53.093C37.1206 53.7582 37.2962 55.0122 36.631 55.8941C36.3038 56.3278 36.1298 56.6877 36.0458 56.9735C35.7342 58.0332 34.6225 58.6397 33.5628 58.3281C32.5031 58.0166 31.8966 56.9049 32.2082 55.8452C32.4562 55.0017 32.8871 54.2151 33.4377 53.4852C34.1029 52.6034 35.357 52.4278 36.2388 53.093Z" fill="white"/>
<path d="M61.9679 17.1918C61.9679 17.1918 58.6644 23.0121 55.1387 24.8707C51.613 26.7293 47.0723 25.044 47.0723 25.044C47.0723 25.044 48.2478 20.3454 51.7735 18.4868C55.2992 16.6283 61.9679 17.1918 61.9679 17.1918Z" fill="#87D623"/>
<path fill-rule="evenodd" clip-rule="evenodd" d="M63.7075 18.1792L61.9681 17.192L62.1365 15.1991C62.816 15.2565 63.4194 15.6562 63.7374 16.2594C64.0553 16.8626 64.0441 17.5862 63.7075 18.1792ZM59.6746 17.1117C61.0314 17.1128 61.9681 17.192 61.9681 17.192C61.9681 17.192 61.5041 18.0095 60.7383 19.1296C59.4607 20.9982 57.3433 23.7089 55.1389 24.8709C51.6132 26.7294 47.0725 25.0441 47.0725 25.0441C47.0725 25.0441 48.248 20.3456 51.7737 18.487C53.9781 17.325 57.411 17.1098 59.6746 17.1117ZM47.0725 25.0441C45.1323 24.5587 45.1324 24.5581 45.1326 24.5575L45.1329 24.5562L45.1337 24.5532L45.1355 24.5459L45.1406 24.5262C45.1446 24.5108 45.1499 24.4909 45.1565 24.4667C45.1696 24.4183 45.1879 24.3528 45.2118 24.272C45.2595 24.1105 45.3296 23.887 45.4247 23.6168C45.6141 23.079 45.9073 22.3428 46.3281 21.5369C47.1482 19.9661 48.5633 17.9185 50.8411 16.7178C53.0248 15.5666 55.9613 15.2375 58.1064 15.1444C59.2249 15.0959 60.2226 15.1091 60.941 15.1342C61.3011 15.1468 61.5936 15.1625 61.7989 15.1753C61.9017 15.1817 61.9828 15.1873 62.0398 15.1916L62.1071 15.1967L62.1266 15.1983L62.135 15.199L62.1365 15.1991C62.1369 15.1991 62.1365 15.1991 61.9681 17.192C63.7075 18.1792 63.7077 18.1789 63.7075 18.1792L63.7067 18.1806L63.7026 18.1879L63.6928 18.2049L63.659 18.2633C63.6303 18.3127 63.5891 18.3828 63.5364 18.4712C63.4309 18.6478 63.2786 18.898 63.0854 19.2023C62.7002 19.8092 62.1473 20.6397 61.4752 21.5351C60.1863 23.2523 58.2553 25.489 56.0716 26.6401C53.7938 27.8408 51.3047 27.8512 49.5454 27.6402C48.6428 27.532 47.8696 27.3579 47.3189 27.2102C47.0423 27.136 46.8183 27.0675 46.6581 27.0156C46.5779 26.9896 46.5135 26.9677 46.4662 26.9512C46.4425 26.943 46.4231 26.9361 46.4081 26.9307L46.389 26.9237L46.3819 26.9211L46.3777 26.9196C46.3771 26.9194 46.3766 26.9192 47.0725 25.0441ZM45.1323 24.5587L47.0725 25.0441L46.3766 26.9192C45.4208 26.5645 44.8848 25.5477 45.1323 24.5587Z" fill="#156319"/>
<path d="M54.8336 24.3344C57.8312 22.7542 60.7314 17.9793 60.7314 17.9793C53.9151 19.7162 49.4482 23.1537 48.0668 24.6553C48.0668 24.6553 51.8359 25.9146 54.8336 24.3344Z" fill="#79C01E"/>
<path d="M41.6357 19.5415C42.9243 20.0735 46.0612 25.0925 46.9337 27.642C47.0065 27.8547 47.5907 27.6323 47.5298 27.4465C47.1746 25.0934 45.7475 19.4461 44.179 17.564C42.3401 17.6732 41.64 19.0256 41.6357 19.5415Z" fill="#8C5936"/>
<path fill-rule="evenodd" clip-rule="evenodd" d="M40.7653 21.3423C40.0722 21.0076 39.629 20.3012 39.6356 19.5246C39.6433 18.614 40.1302 17.6786 40.7866 17.0047C41.5302 16.2413 42.6296 15.6525 44.0603 15.5675C44.6944 15.5298 45.3087 15.7956 45.7154 16.2836C46.291 16.9743 46.7644 17.8874 47.1494 18.7763C47.5476 19.6955 47.9085 20.7253 48.2209 21.7405C48.8277 23.7129 49.2901 25.7585 49.4928 27.0541C49.7262 28.1371 49.0234 28.8757 48.8283 29.0556C48.5285 29.3321 48.1993 29.4905 47.9493 29.579C47.7048 29.6656 47.3224 29.7612 46.8747 29.7182C46.4464 29.677 45.4261 29.414 45.0413 28.2896C44.6804 27.2349 43.775 25.4982 42.7583 23.9168C42.259 23.1402 41.7682 22.4565 41.3495 21.9554C41.1394 21.704 40.9701 21.5257 40.8463 21.4124C40.8097 21.3789 40.7828 21.3563 40.7653 21.3423ZM47.5297 27.4465C47.5293 27.4438 47.5289 27.4411 47.5285 27.4384C47.4586 26.9775 47.348 26.3912 47.2034 25.7322C46.9428 24.5442 46.572 23.1199 46.1316 21.7671C45.5667 20.0317 44.8872 18.4139 44.1789 17.5639C43.6427 17.5958 43.2033 17.7333 42.8498 17.925C42.4742 18.1287 42.1955 18.3935 42.0005 18.6575C41.7496 18.9973 41.6373 19.3358 41.6355 19.5415C42.253 19.7964 43.2949 21.0817 44.3087 22.6318C45.0179 23.7162 45.7134 24.9303 46.2401 26.0119C46.5114 26.5689 46.7379 27.0908 46.8985 27.5418C46.9106 27.5756 46.9222 27.609 46.9335 27.642C47.0063 27.8547 47.5906 27.6323 47.5297 27.4465ZM45.5405 27.6695C45.555 27.7966 45.5835 27.9302 45.6293 28.0698C45.5945 27.9639 45.5687 27.8552 45.5521 27.745C45.5483 27.7203 45.5445 27.6951 45.5405 27.6695Z" fill="#583A24"/>
<path d="M44.5967 17.7818C44.9325 18.2486 44.5451 19.1016 43.7313 19.6868C42.9176 20.2721 41.9858 20.3681 41.65 19.9012C41.3142 19.4344 41.7016 18.5815 42.5154 17.9962C43.3291 17.4109 44.2609 17.3149 44.5967 17.7818Z" fill="#C27A49"/>
<path d="M60.1726 57.6615C60.1726 58.622 59.394 59.4006 58.4335 59.4006C57.473 59.4006 56.6943 58.622 56.6943 57.6615C56.6943 56.701 57.473 55.9224 58.4335 55.9224C59.394 55.9224 60.1726 56.701 60.1726 57.6615Z" fill="#83A918"/>
<path d="M65.3899 61.1398C65.3899 62.1003 64.6112 62.8789 63.6508 62.8789C62.6903 62.8789 61.9116 62.1003 61.9116 61.1398C61.9116 60.1793 62.6903 59.4006 63.6508 59.4006C64.6112 59.4006 65.3899 60.1793 65.3899 61.1398Z" fill="#83A918"/>
<path d="M64.5203 55.4875C64.5203 56.2078 63.9363 56.7918 63.216 56.7918C62.4956 56.7918 61.9116 56.2078 61.9116 55.4875C61.9116 54.7671 62.4956 54.1831 63.216 54.1831C63.9363 54.1831 64.5203 54.7671 64.5203 55.4875Z" fill="#83A918"/>
<path d="M65.3899 67.2267C65.3899 68.1872 64.6112 68.9658 63.6508 68.9658C62.6903 68.9658 61.9116 68.1872 61.9116 67.2267C61.9116 66.2662 62.6903 65.4875 63.6508 65.4875C64.6112 65.4875 65.3899 66.2662 65.3899 67.2267Z" fill="#83A918"/>
<path d="M60.1726 63.7484C60.1726 64.7089 59.394 65.4875 58.4335 65.4875C57.473 65.4875 56.6943 64.7089 56.6943 63.7484C56.6943 62.7879 57.473 62.0093 58.4335 62.0093C59.394 62.0093 60.1726 62.7879 60.1726 63.7484Z" fill="#83A918"/>
<path d="M61.9114 72.444C61.9114 73.4045 61.1327 74.1831 60.1722 74.1831C59.2117 74.1831 58.4331 73.4045 58.4331 72.444C58.4331 71.4835 59.2117 70.7048 60.1722 70.7048C61.1327 70.7048 61.9114 71.4835 61.9114 72.444Z" fill="#83A918"/>
<path d="M56.6941 69.8353C56.6941 70.7958 55.9154 71.5745 54.955 71.5745C53.9945 71.5745 53.2158 70.7958 53.2158 69.8353C53.2158 68.8748 53.9945 68.0962 54.955 68.0962C55.9154 68.0962 56.6941 68.8748 56.6941 69.8353Z" fill="#83A918"/>
<path d="M57.5638 76.3571C57.5638 77.0775 56.9798 77.6614 56.2594 77.6614C55.5391 77.6614 54.9551 77.0775 54.9551 76.3571C54.9551 75.6367 55.5391 75.0527 56.2594 75.0527C56.9798 75.0527 57.5638 75.6367 57.5638 76.3571Z" fill="#83A918"/>
</g>
<g filter="url(#filter1_d_38_411)">
<path d="M50.7005 45.8576C47.2883 52.0293 43.9985 52.4999 43.9985 61.7566C43.9985 72.9107 52.9528 81.1395 63.9985 81.1395C75.0442 81.1395 83.9985 73.7803 83.9985 62.6262C83.9985 53.3695 80.3558 52.4999 76.631 46.1541C72.5023 39.1203 75.2646 28.9656 63.5979 28.9656C50.9313 28.9656 54.7163 38.594 50.7005 45.8576Z" fill="#A4D31F"/>
<path fill-rule="evenodd" clip-rule="evenodd" d="M46.6107 48.4479C47.3761 47.4219 48.1606 46.3181 48.9502 44.8899C49.8057 43.3426 50.274 41.6178 50.6721 39.7392C50.7583 39.3325 50.8427 38.9082 50.9291 38.4738C51.2202 37.0109 51.5337 35.4347 52.0137 34.0378C52.6664 32.1384 53.7095 30.2737 55.6764 28.9315C57.6148 27.6088 60.1989 26.9656 63.5979 26.9656C66.8031 26.9656 69.2738 27.6655 71.1594 29.0501C73.0377 30.4293 74.0986 32.3158 74.8135 34.2189C75.3428 35.6282 75.7332 37.206 76.0981 38.6811C76.2098 39.1324 76.3191 39.5741 76.4292 39.9985C76.9236 41.903 77.4702 43.633 78.3558 45.1417C79.2231 46.6194 80.089 47.7854 80.9354 48.8795C81.0688 49.052 81.2039 49.2251 81.3397 49.3993C82.0439 50.3027 82.7692 51.2331 83.4 52.2266C85.0078 54.7589 85.9985 57.674 85.9985 62.6262C85.9985 75.0906 75.9312 83.1395 63.9985 83.1395C51.9388 83.1395 41.9985 74.1037 41.9985 61.7566C41.9985 56.8429 42.8836 54.0317 44.3628 51.6082C44.9276 50.683 45.5794 49.8181 46.2062 48.9864C46.3426 48.8054 46.4778 48.626 46.6107 48.4479ZM47.7821 50.2189C48.6892 49.0144 49.6895 47.6862 50.7005 45.8576C51.9474 43.6023 52.4422 41.1191 52.911 38.7669C53.9519 33.5432 54.8641 28.9656 63.5979 28.9656C71.6311 28.9656 72.8233 33.7801 74.1346 39.0751C74.7277 41.4702 75.3451 43.9635 76.631 46.1541C77.7162 48.003 78.7945 49.3871 79.7778 50.6491C82.1693 53.7186 83.9985 56.0666 83.9985 62.6262C83.9985 73.7803 75.0442 81.1395 63.9985 81.1395C52.9528 81.1395 43.9985 72.9107 43.9985 61.7566C43.9985 55.2426 45.6276 53.0795 47.7821 50.2189Z" fill="#5B7C14"/>
<path fill-rule="evenodd" clip-rule="evenodd" d="M49.8262 75.6023C51.5178 76.3899 53.3523 76.9664 55.2963 77.2955C66.1871 79.1391 76.2441 73.3777 78.1058 62.38C79.2007 55.9125 77.789 53.2921 75.9434 49.8666C75.1846 48.4581 74.3524 46.9135 73.591 44.9094C72.6888 42.5348 72.4962 39.9734 72.3112 37.513C72.1754 35.7074 72.0437 33.9563 71.6387 32.3733C72.9272 34.2003 73.5176 36.5846 74.1344 39.0753C74.7275 41.4703 75.3449 43.9637 76.6308 46.1543C77.716 48.0032 78.7944 49.3872 79.7776 50.6493C82.1691 53.7188 83.9983 56.0667 83.9983 62.6263C83.9983 73.7805 75.044 81.1396 63.9983 81.1396C58.4602 81.1396 53.4478 79.071 49.8262 75.6023Z" fill="#92BC1B"/>
<path d="M56.2594 47.8881C58.4323 49.1356 58.5245 53.0545 56.4654 56.6411C54.4062 60.2278 50.9755 62.124 48.8026 60.8765C46.6297 59.629 46.5374 55.7101 48.5966 52.1235C50.6558 48.5369 54.0865 46.6406 56.2594 47.8881Z" fill="#BBEB35"/>
<path d="M60.9157 31.1066C61.6977 31.8088 61.3921 33.4243 60.2331 34.7151C59.0741 36.0059 57.5006 36.483 56.7187 35.7809C55.9367 35.0787 56.2423 33.4631 57.4013 32.1724C58.5603 30.8816 60.1337 30.4044 60.9157 31.1066Z" fill="#BBEB35"/>
<path fill-rule="evenodd" clip-rule="evenodd" d="M52.2388 53.093C53.1206 53.7582 53.2962 55.0122 52.631 55.8941C52.3038 56.3278 52.1298 56.6877 52.0458 56.9735C51.7342 58.0332 50.6225 58.6397 49.5628 58.3281C48.5031 58.0166 47.8966 56.9049 48.2082 55.8452C48.4562 55.0017 48.8871 54.2151 49.4377 53.4852C50.1029 52.6034 51.357 52.4278 52.2388 53.093Z" fill="white"/>
<path d="M77.9679 17.1918C77.9679 17.1918 74.6644 23.0121 71.1387 24.8707C67.613 26.7293 63.0723 25.044 63.0723 25.044C63.0723 25.044 64.2478 20.3454 67.7735 18.4868C71.2992 16.6283 77.9679 17.1918 77.9679 17.1918Z" fill="#87D623"/>
<path fill-rule="evenodd" clip-rule="evenodd" d="M79.7075 18.1792L77.9681 17.192L78.1365 15.1991C78.816 15.2565 79.4194 15.6562 79.7374 16.2594C80.0553 16.8626 80.0441 17.5862 79.7075 18.1792ZM75.6746 17.1117C77.0314 17.1128 77.9681 17.192 77.9681 17.192C77.9681 17.192 77.5041 18.0095 76.7383 19.1296C75.4607 20.9982 73.3433 23.7089 71.1389 24.8709C67.6132 26.7294 63.0725 25.0441 63.0725 25.0441C63.0725 25.0441 64.248 20.3456 67.7737 18.487C69.9781 17.325 73.411 17.1098 75.6746 17.1117ZM63.0725 25.0441C61.1323 24.5587 61.1324 24.5581 61.1326 24.5575L61.1329 24.5562L61.1337 24.5532L61.1355 24.5459L61.1406 24.5262C61.1446 24.5108 61.1499 24.4909 61.1565 24.4667C61.1696 24.4183 61.1879 24.3528 61.2118 24.272C61.2595 24.1105 61.3296 23.887 61.4247 23.6168C61.6141 23.079 61.9073 22.3428 62.3281 21.5369C63.1482 19.9661 64.5633 17.9185 66.8411 16.7178C69.0248 15.5666 71.9613 15.2375 74.1064 15.1444C75.2249 15.0959 76.2226 15.1091 76.941 15.1342C77.3011 15.1468 77.5936 15.1625 77.7989 15.1753C77.9017 15.1817 77.9828 15.1873 78.0398 15.1916L78.1071 15.1967L78.1266 15.1983L78.135 15.199L78.1365 15.1991C78.1369 15.1991 78.1365 15.1991 77.9681 17.192C79.7075 18.1792 79.7077 18.1789 79.7075 18.1792L79.7067 18.1806L79.7026 18.1879L79.6928 18.2049L79.659 18.2633C79.6303 18.3127 79.5891 18.3828 79.5364 18.4712C79.4309 18.6478 79.2786 18.898 79.0854 19.2023C78.7002 19.8092 78.1473 20.6397 77.4752 21.5351C76.1863 23.2523 74.2553 25.489 72.0716 26.6401C69.7938 27.8408 67.3047 27.8512 65.5454 27.6402C64.6428 27.532 63.8696 27.3579 63.3189 27.2102C63.0423 27.136 62.8183 27.0675 62.6581 27.0156C62.5779 26.9896 62.5135 26.9677 62.4662 26.9512C62.4425 26.943 62.4231 26.9361 62.4081 26.9307L62.389 26.9237L62.3819 26.9211L62.3777 26.9196C62.3771 26.9194 62.3766 26.9192 63.0725 25.0441ZM61.1323 24.5587L63.0725 25.0441L62.3766 26.9192C61.4208 26.5645 60.8848 25.5477 61.1323 24.5587Z" fill="#156319"/>
<path d="M70.8336 24.3344C73.8312 22.7542 76.7314 17.9793 76.7314 17.9793C69.9151 19.7162 65.4482 23.1537 64.0668 24.6553C64.0668 24.6553 67.8359 25.9146 70.8336 24.3344Z" fill="#79C01E"/>
<path d="M57.6357 19.5415C58.9243 20.0735 62.0612 25.0925 62.9337 27.642C63.0065 27.8547 63.5907 27.6323 63.5298 27.4465C63.1746 25.0934 61.7475 19.4461 60.179 17.564C58.3401 17.6732 57.64 19.0256 57.6357 19.5415Z" fill="#8C5936"/>
<path fill-rule="evenodd" clip-rule="evenodd" d="M56.7653 21.3423C56.0722 21.0076 55.629 20.3012 55.6356 19.5246C55.6433 18.614 56.1302 17.6786 56.7866 17.0047C57.5302 16.2413 58.6296 15.6525 60.0603 15.5675C60.6944 15.5298 61.3087 15.7956 61.7154 16.2836C62.291 16.9743 62.7644 17.8874 63.1494 18.7763C63.5476 19.6955 63.9085 20.7253 64.2209 21.7405C64.8277 23.7129 65.2901 25.7585 65.4928 27.0541C65.7262 28.1371 65.0234 28.8757 64.8283 29.0556C64.5285 29.3321 64.1993 29.4905 63.9493 29.579C63.7048 29.6656 63.3224 29.7612 62.8747 29.7182C62.4464 29.677 61.4261 29.414 61.0413 28.2896C60.6804 27.2349 59.775 25.4982 58.7583 23.9168C58.259 23.1402 57.7682 22.4565 57.3495 21.9554C57.1394 21.704 56.9701 21.5257 56.8463 21.4124C56.8097 21.3789 56.7828 21.3563 56.7653 21.3423ZM63.5297 27.4465C63.5293 27.4438 63.5289 27.4411 63.5285 27.4384C63.4586 26.9775 63.348 26.3912 63.2034 25.7322C62.9428 24.5442 62.572 23.1199 62.1316 21.7671C61.5667 20.0317 60.8872 18.4139 60.1789 17.5639C59.6427 17.5958 59.2033 17.7333 58.8498 17.925C58.4742 18.1287 58.1955 18.3935 58.0005 18.6575C57.7496 18.9973 57.6373 19.3358 57.6355 19.5415C58.253 19.7964 59.2949 21.0817 60.3087 22.6318C61.0179 23.7162 61.7134 24.9303 62.2401 26.0119C62.5114 26.5689 62.7379 27.0908 62.8985 27.5418C62.9106 27.5756 62.9222 27.609 62.9335 27.642C63.0063 27.8547 63.5906 27.6323 63.5297 27.4465ZM61.5405 27.6695C61.555 27.7966 61.5835 27.9302 61.6293 28.0698C61.5945 27.9639 61.5687 27.8552 61.5521 27.745C61.5483 27.7203 61.5445 27.6951 61.5405 27.6695Z" fill="#583A24"/>
<path d="M60.5967 17.7818C60.9325 18.2486 60.5451 19.1016 59.7313 19.6868C58.9176 20.2721 57.9858 20.3681 57.65 19.9012C57.3142 19.4344 57.7016 18.5815 58.5154 17.9962C59.3291 17.4109 60.2609 17.3149 60.5967 17.7818Z" fill="#C27A49"/>
<path d="M76.1726 57.6615C76.1726 58.622 75.394 59.4006 74.4335 59.4006C73.473 59.4006 72.6943 58.622 72.6943 57.6615C72.6943 56.701 73.473 55.9224 74.4335 55.9224C75.394 55.9224 76.1726 56.701 76.1726 57.6615Z" fill="#83A918"/>
<path d="M81.3899 61.1398C81.3899 62.1003 80.6112 62.8789 79.6508 62.8789C78.6903 62.8789 77.9116 62.1003 77.9116 61.1398C77.9116 60.1793 78.6903 59.4006 79.6508 59.4006C80.6112 59.4006 81.3899 60.1793 81.3899 61.1398Z" fill="#83A918"/>
<path d="M80.5203 55.4875C80.5203 56.2078 79.9363 56.7918 79.216 56.7918C78.4956 56.7918 77.9116 56.2078 77.9116 55.4875C77.9116 54.7671 78.4956 54.1831 79.216 54.1831C79.9363 54.1831 80.5203 54.7671 80.5203 55.4875Z" fill="#83A918"/>
<path d="M81.3899 67.2267C81.3899 68.1872 80.6112 68.9658 79.6508 68.9658C78.6903 68.9658 77.9116 68.1872 77.9116 67.2267C77.9116 66.2662 78.6903 65.4875 79.6508 65.4875C80.6112 65.4875 81.3899 66.2662 81.3899 67.2267Z" fill="#83A918"/>
<path d="M76.1726 63.7484C76.1726 64.7089 75.394 65.4875 74.4335 65.4875C73.473 65.4875 72.6943 64.7089 72.6943 63.7484C72.6943 62.7879 73.473 62.0093 74.4335 62.0093C75.394 62.0093 76.1726 62.7879 76.1726 63.7484Z" fill="#83A918"/>
<path d="M77.9114 72.444C77.9114 73.4045 77.1327 74.1831 76.1722 74.1831C75.2117 74.1831 74.4331 73.4045 74.4331 72.444C74.4331 71.4835 75.2117 70.7048 76.1722 70.7048C77.1327 70.7048 77.9114 71.4835 77.9114 72.444Z" fill="#83A918"/>
<path d="M72.6941 69.8353C72.6941 70.7958 71.9154 71.5745 70.955 71.5745C69.9945 71.5745 69.2158 70.7958 69.2158 69.8353C69.2158 68.8748 69.9945 68.0962 70.955 68.0962C71.9154 68.0962 72.6941 68.8748 72.6941 69.8353Z" fill="#83A918"/>
<path d="M73.5638 76.3571C73.5638 77.0775 72.9798 77.6614 72.2594 77.6614C71.5391 77.6614 70.9551 77.0775 70.9551 76.3571C70.9551 75.6367 71.5391 75.0527 72.2594 75.0527C72.9798 75.0527 73.5638 75.6367 73.5638 76.3571Z" fill="#83A918"/>
</g>
<defs>
<filter id="filter0_d_38_411" x="-0.00146484" y="0" width="100" height="100" filterUnits="userSpaceOnUse" color-interpolation-filters="sRGB">
<feFlood flood-opacity="0" result="BackgroundImageFix"/>
<feColorMatrix in="SourceAlpha" type="matrix" values="0 0 0 0 0 0 0 0 0 0 0 0 0 0 0 0 0 0 127 0" result="hardAlpha"/>
<feOffset dx="4" dy="4"/>
<feColorMatrix type="matrix" values="0 0 0 0 0 0 0 0 0 0 0 0 0 0 0 0 0 0 0.2 0"/>
<feBlend mode="normal" in2="BackgroundImageFix" result="effect1_dropShadow_38_411"/>
<feBlend mode="normal" in="SourceGraphic" in2="effect1_dropShadow_38_411" result="shape"/>
</filter>
<filter id="filter1_d_38_411" x="15.9985" y="0" width="100" height="100" filterUnits="userSpaceOnUse" color-interpolation-filters="sRGB">
<feFlood flood-opacity="0" result="BackgroundImageFix"/>
<feColorMatrix in="SourceAlpha" type="matrix" values="0 0 0 0 0 0 0 0 0 0 0 0 0 0 0 0 0 0 127 0" result="hardAlpha"/>
<feOffset dx="4" dy="4"/>
<feColorMatrix type="matrix" values="0 0 0 0 0 0 0 0 0 0 0 0 0 0 0 0 0 0 0.2 0"/>
<feBlend mode="normal" in2="BackgroundImageFix" result="effect1_dropShadow_38_411"/>
<feBlend mode="normal" in="SourceGraphic" in2="effect1_dropShadow_38_411" result="shape"/>
</filter>
</defs>
</svg>
