<svg width="96" height="96" viewBox="0 0 96 96" fill="none" xmlns="http://www.w3.org/2000/svg">
<g filter="url(#filter0_d_42_296)">
<path d="M39.9985 20.0377C43.2449 24.7472 41.815 28.6415 40.6942 30C46.3522 28.4604 52.8681 29.3585 55.4188 30C52.5435 25.9245 54.6072 21.283 55.9985 19.4717C52.7522 20.2868 50.8584 22.8302 50.3174 24C50.2246 21.3736 48.5782 18.9057 47.7667 18C46.4681 20.2642 45.9889 22.7925 45.9116 23.7736C44.4275 22.234 41.3512 20.6415 39.9985 20.0377Z" fill="#D72424"/>
<path fill-rule="evenodd" clip-rule="evenodd" d="M39.014 31.0849C38.5414 30.353 38.597 29.3993 39.1515 28.7272C39.7245 28.0326 41.0726 25.1198 38.3519 21.1729C37.8431 20.4349 37.8876 19.4485 38.4606 18.7592C39.0336 18.0699 39.9952 17.8461 40.8137 18.2114C41.5549 18.5423 42.731 19.1262 43.9256 19.8343C44.1535 19.9694 44.3878 20.1123 44.6241 20.262C44.951 19.2255 45.4079 18.0927 46.0317 17.005C46.3512 16.448 46.9186 16.0783 47.5571 16.011C48.1956 15.9437 48.8276 16.1871 49.2561 16.6653C49.7852 17.2556 50.5005 18.2499 51.1035 19.4666C51.1474 19.555 51.1909 19.6452 51.234 19.7372C52.3421 18.8061 53.7649 17.9705 55.5115 17.5319C56.3371 17.3246 57.2034 17.6626 57.6705 18.3742C58.1376 19.0857 58.1031 20.015 57.5846 20.69C57.0605 21.3724 56.3472 22.691 56.079 24.2302C55.8188 25.7235 55.9858 27.3344 57.053 28.847C57.5352 29.5305 57.5412 30.4419 57.0679 31.1316C56.5947 31.8213 55.7422 32.1436 54.931 31.9396C52.5607 31.3435 46.4218 30.5142 41.2193 31.9298C40.3786 32.1586 39.4866 31.8168 39.014 31.0849ZM51.9803 21.7588C51.1264 22.5945 50.572 23.4494 50.3174 24C50.2838 23.0485 50.0463 22.1179 49.7184 21.2747C49.5214 20.7681 49.2918 20.293 49.0542 19.8641C48.5957 19.0365 48.1076 18.3804 47.7667 18C47.3812 18.672 47.068 19.3673 46.816 20.0385C46.628 20.5393 46.4741 21.0268 46.3497 21.4812C46.0793 22.4693 45.9488 23.301 45.9116 23.7736C45.4361 23.2803 44.7972 22.7816 44.1039 22.3118C43.7998 22.1057 43.4852 21.9051 43.1693 21.7129C41.9578 20.976 40.7277 20.3632 39.9985 20.0378C40.7285 21.0966 41.222 22.1143 41.5358 23.0712C42.1257 24.8704 42.0803 26.4549 41.7761 27.6944C41.5225 28.7277 41.0891 29.5213 40.6942 30C41.5479 29.7677 42.4212 29.5909 43.2975 29.4603C46.7783 28.9416 50.306 29.1528 52.8416 29.5134C53.8978 29.6637 54.7819 29.8398 55.4188 30C54.8916 29.2527 54.5304 28.4864 54.3007 27.7219C53.716 25.776 53.9832 23.8424 54.5317 22.2665C54.9428 21.0855 55.5118 20.1054 55.9985 19.4717C54.7627 19.782 53.7228 20.3428 52.879 20.9829C52.5496 21.2328 52.25 21.4948 51.9803 21.7588Z" fill="#732533"/>
<path fill-rule="evenodd" clip-rule="evenodd" d="M40.6942 30C41.815 28.6415 43.2449 24.7472 39.9985 20.0377C40.6744 20.3394 41.7805 20.8879 42.9033 21.5533C44.6994 25.1032 43.9368 28.0314 43.0463 29.499C42.2545 29.6252 41.4663 29.7899 40.6942 30ZM48.722 29.1644C51.591 29.2462 54.0641 29.6593 55.4188 30C55.3147 29.8524 55.217 29.704 55.1255 29.555C53.385 29.2923 51.1276 29.0935 48.722 29.1644ZM55.1854 20.7603C55.4555 20.2468 55.7387 19.8099 55.9985 19.4717C54.2404 19.9131 52.879 20.8615 51.9143 21.824C52.1381 22.5147 52.2909 23.2509 52.3174 24C52.6767 23.2231 53.6327 21.8403 55.1854 20.7603ZM48.9534 19.6856C48.5252 18.9421 48.0827 18.3526 47.7667 18C46.9028 19.5063 46.4015 21.1295 46.1399 22.3362C46.8193 22.7989 47.4444 23.2889 47.9116 23.7736C47.9699 23.0329 48.2573 21.4105 48.9534 19.6856Z" fill="#FE3434"/>
<path d="M71.9985 53C71.9985 66.2548 61.2534 77 47.9985 77C34.7437 77 23.9985 66.2548 23.9985 53C23.9985 39.7452 34.7437 29 47.9985 29C61.2534 29 71.9985 39.7452 71.9985 53Z" fill="#FE3434"/>
<path fill-rule="evenodd" clip-rule="evenodd" d="M73.9985 53C73.9985 67.3594 62.3579 79 47.9985 79C33.6391 79 21.9985 67.3594 21.9985 53C21.9985 38.6406 33.6391 27 47.9985 27C62.3579 27 73.9985 38.6406 73.9985 53ZM47.9985 77C61.2534 77 71.9985 66.2548 71.9985 53C71.9985 39.7452 61.2534 29 47.9985 29C34.7437 29 23.9985 39.7452 23.9985 53C23.9985 66.2548 34.7437 77 47.9985 77Z" fill="#732533"/>
<path fill-rule="evenodd" clip-rule="evenodd" d="M47.9985 77C61.2534 77 71.9985 66.2548 71.9985 53C71.9985 39.7452 61.2534 29 47.9985 29C42.3125 29 37.0883 30.9773 32.9761 34.2819C35.9634 32.2125 39.5894 31 43.4985 31C53.7158 31 61.9985 39.2827 61.9985 49.5C61.9985 59.7173 53.7158 68 43.4985 68C33.2813 68 24.9985 59.7173 24.9985 49.5C24.9985 47.2218 25.4103 45.0398 26.1636 43.0243C24.7734 46.0623 23.9985 49.4406 23.9985 53C23.9985 66.2548 34.7437 77 47.9985 77Z" fill="#D72424"/>
<path d="M64.8963 49.0204C64.8963 50.0833 64.0347 50.9449 62.9719 50.9449C61.909 50.9449 61.0474 50.0833 61.0474 49.0204C61.0474 47.9576 61.909 47.0959 62.9719 47.0959C64.0347 47.0959 64.8963 47.9576 64.8963 49.0204Z" fill="#B42222"/>
<path d="M69.4984 51.6979C69.4984 52.7608 68.6368 53.6224 67.5739 53.6224C66.511 53.6224 65.6494 52.7608 65.6494 51.6979C65.6494 50.6351 66.511 49.7734 67.5739 49.7734C68.6368 49.7734 69.4984 50.6351 69.4984 51.6979Z" fill="#B42222"/>
<path d="M68.5361 45.4434C68.5361 46.2405 67.8899 46.8867 67.0928 46.8867C66.2956 46.8867 65.6494 46.2405 65.6494 45.4434C65.6494 44.6462 66.2956 44 67.0928 44C67.8899 44 68.5361 44.6462 68.5361 45.4434Z" fill="#B42222"/>
<path d="M68.327 58.4338C68.327 59.4966 67.4654 60.3583 66.4025 60.3583C65.3397 60.3583 64.478 59.4966 64.478 58.4338C64.478 57.3709 65.3397 56.5093 66.4025 56.5093C67.4654 56.5093 68.327 57.3709 68.327 58.4338Z" fill="#B42222"/>
<path d="M63.725 55.756C63.725 56.8189 62.8633 57.6805 61.8005 57.6805C60.7376 57.6805 59.876 56.8189 59.876 55.756C59.876 54.6932 60.7376 53.8315 61.8005 53.8315C62.8633 53.8315 63.725 54.6932 63.725 55.756Z" fill="#B42222"/>
<path d="M65.9985 64.5C65.9985 65.8807 64.8792 67 63.4985 67C62.1178 67 60.9985 65.8807 60.9985 64.5C60.9985 63.1193 62.1178 62 63.4985 62C64.8792 62 65.9985 63.1193 65.9985 64.5Z" fill="#B42222"/>
<path d="M58.9985 61.5C58.9985 62.3284 58.327 63 57.4985 63C56.6701 63 55.9985 62.3284 55.9985 61.5C55.9985 60.6716 56.6701 60 57.4985 60C58.327 60 58.9985 60.6716 58.9985 61.5Z" fill="#B42222"/>
<path d="M53.6842 73.1143C53.6842 73.7613 53.1597 74.2857 52.5127 74.2857C51.8658 74.2857 51.3413 73.7613 51.3413 73.1143C51.3413 72.4673 51.8658 71.9429 52.5127 71.9429C53.1597 71.9429 53.6842 72.4673 53.6842 73.1143Z" fill="#B42222"/>
<path d="M60.9985 70C60.9985 71.1046 60.1031 72 58.9985 72C57.894 72 56.9985 71.1046 56.9985 70C56.9985 68.8954 57.894 68 58.9985 68C60.1031 68 60.9985 68.8954 60.9985 70Z" fill="#B42222"/>
<path d="M56.9985 66C56.9985 66.5523 56.5508 67 55.9985 67C55.4463 67 54.9985 66.5523 54.9985 66C54.9985 65.4477 55.4463 65 55.9985 65C56.5508 65 56.9985 65.4477 56.9985 66Z" fill="#B42222"/>
<path d="M44.453 37.6632C46.1213 40.5263 43.9922 44.8759 39.6975 47.3783C35.4028 49.8808 30.5688 49.5883 28.9005 46.7252C27.2323 43.862 29.3614 39.5124 33.6561 37.01C37.9508 34.5076 42.7848 34.8 44.453 37.6632Z" fill="#FF7878"/>
<path fill-rule="evenodd" clip-rule="evenodd" d="M36.0816 40.1546C36.6714 41.0886 36.3924 42.3238 35.4584 42.9136C34.7458 43.3635 34.1956 43.908 33.78 44.5491C33.1792 45.476 31.9408 45.7402 31.0139 45.1394C30.087 44.5386 29.8227 43.3001 30.4236 42.3733C31.169 41.2234 32.1446 40.2754 33.3227 39.5315C34.2566 38.9417 35.4918 39.2207 36.0816 40.1546Z" fill="white"/>
</g>
<defs>
<filter id="filter0_d_42_296" x="-0.00146484" y="0" width="100" height="100" filterUnits="userSpaceOnUse" color-interpolation-filters="sRGB">
<feFlood flood-opacity="0" result="BackgroundImageFix"/>
<feColorMatrix in="SourceAlpha" type="matrix" values="0 0 0 0 0 0 0 0 0 0 0 0 0 0 0 0 0 0 127 0" result="hardAlpha"/>
<feOffset dx="4" dy="4"/>
<feColorMatrix type="matrix" values="0 0 0 0 0 0 0 0 0 0 0 0 0 0 0 0 0 0 0.2 0"/>
<feBlend mode="normal" in2="BackgroundImageFix" result="effect1_dropShadow_42_296"/>
<feBlend mode="normal" in="SourceGraphic" in2="effect1_dropShadow_42_296" result="shape"/>
</filter>
</defs>
</svg>
